<svg width="23" height="23" viewBox="0 0 23 23" fill="none" xmlns="http://www.w3.org/2000/svg">
<g clip-path="url(#clip0_162_2916)">
<path d="M11.6202 22.236C17.616 22.236 22.4765 17.3755 22.4765 11.3798C22.4765 5.38399 17.616 0.523468 11.6202 0.523468C5.62444 0.523468 0.763916 5.38399 0.763916 11.3798C0.763916 17.3755 5.62444 22.236 11.6202 22.236Z" fill="#F0F0F0"/>
<path d="M11.6205 0.523193C6.95267 0.523193 2.97337 3.46932 1.43945 7.6034H21.8016C20.2676 3.46932 16.2883 0.523193 11.6205 0.523193Z" fill="#D80027"/>
<path d="M11.6205 22.2363C16.2883 22.2363 20.2676 19.2902 21.8015 15.1561H1.43945C2.97337 19.2902 6.95267 22.2363 11.6205 22.2363Z" fill="black"/>
<path d="M15.3962 10.1997H12.5641C12.5641 9.67832 12.1415 9.25565 11.6201 9.25565C11.0988 9.25565 10.6761 9.67832 10.6761 10.1997H7.84399C7.84399 10.7211 8.29813 11.1437 8.81949 11.1437H8.78802C8.78802 11.6651 9.21066 12.0877 9.73205 12.0877C9.73205 12.6091 10.1547 13.0318 10.6761 13.0318H12.5641C13.0855 13.0318 13.5082 12.6091 13.5082 12.0877C14.0296 12.0877 14.4522 11.6651 14.4522 11.1437H14.4208C14.9421 11.1437 15.3962 10.7211 15.3962 10.1997Z" fill="#FF9811"/>
</g>
<defs>
<clipPath id="clip0_162_2916">
<rect width="21.7126" height="21.7126" fill="white" transform="translate(0.763916 0.523468)"/>
</clipPath>
</defs>
</svg>
