<svg width="27" height="27" viewBox="0 0 27 27" fill="none" xmlns="http://www.w3.org/2000/svg">
<path d="M13.5005 5.64871C15.3632 5.62042 17.1646 6.30542 18.5267 7.55996L22.1955 4.01878C19.8417 1.84168 16.7259 0.647878 13.5005 0.68735C11.0905 0.6868 8.72797 1.348 6.67696 2.59702C4.62596 3.84603 2.96738 5.63361 1.88672 7.75984L6.09047 10.9815C6.60448 9.43871 7.59614 8.09414 8.92559 7.13737C10.255 6.18061 11.8552 5.65991 13.5005 5.64871Z" fill="#E43E2B"/>
<path d="M25.98 13.8048C25.9953 12.9227 25.903 12.042 25.705 11.1816H13.5V15.9443H20.665C20.5291 16.7794 20.2235 17.5786 19.7666 18.294C19.3097 19.0095 18.7109 19.6263 18.0062 20.1074L22.1087 23.2439C23.3873 22.0254 24.3928 20.5558 25.0602 18.9299C25.7277 17.3041 26.0423 15.5581 25.9837 13.8048H25.98Z" fill="#3B7DED"/>
<path d="M6.10543 16.057C5.8212 15.2401 5.67467 14.3827 5.67168 13.5189C5.67686 12.6566 5.81814 11.8003 6.09043 10.9809L1.88668 7.75928C0.97492 9.54608 0.5 11.5189 0.5 13.5196C0.5 15.5202 0.97492 17.493 1.88668 19.2798L6.10543 16.057Z" fill="#F0B501"/>
<path d="M13.5006 26.3515C16.6672 26.4399 19.7478 25.3276 22.1094 23.2434L18.0069 20.1069C16.6767 20.9871 15.1014 21.4357 13.5006 21.3901C11.8568 21.3805 10.2577 20.8601 8.93037 19.9029C7.603 18.9457 6.61467 17.6002 6.10561 16.0574L1.90186 19.2802C2.9796 21.4055 4.63547 23.1927 6.684 24.4416C8.73253 25.6905 11.0928 26.3518 13.5006 26.3515Z" fill="#2BA24C"/>
</svg>
