<svg width="22" height="21" viewBox="0 0 22 21" fill="none" xmlns="http://www.w3.org/2000/svg">
<path d="M1.5 9.43841C1.5 8.21422 2.06058 7.05744 3.02142 6.29888L8.52142 1.95677C9.97466 0.809478 12.0253 0.809479 13.4786 1.95677L18.9786 6.29888C19.9394 7.05744 20.5 8.21422 20.5 9.43841V16C20.5 18.2091 18.7091 20 16.5 20H15C14.4477 20 14 19.5523 14 19V16C14 14.8954 13.1046 14 12 14H10C8.89543 14 8 14.8954 8 16V19C8 19.5523 7.55228 20 7 20H5.5C3.29086 20 1.5 18.2091 1.5 16L1.5 9.43841Z" stroke="#F2FEFF" stroke-width="2"/>
</svg>
