<svg width="16" height="21" viewBox="0 0 16 21" fill="none" xmlns="http://www.w3.org/2000/svg">
<path d="M1 8.42285C1 13.2747 5.24448 17.2869 7.12319 18.8252C7.39206 19.0454 7.52811 19.1568 7.72871 19.2132C7.88491 19.2572 8.1148 19.2572 8.271 19.2132C8.47197 19.1567 8.60707 19.0463 8.87695 18.8254C10.7557 17.2871 14.9999 13.2751 14.9999 8.4233C14.9999 6.58718 14.2625 4.82605 12.9497 3.52772C11.637 2.22939 9.8566 1.5 8.00008 1.5C6.14357 1.5 4.36301 2.2295 3.05025 3.52783C1.7375 4.82616 1 6.58674 1 8.42285Z" stroke="#F2FEFF" stroke-width="2" stroke-linecap="round" stroke-linejoin="round"/>
<path d="M6 7.5C6 8.60457 6.89543 9.5 8 9.5C9.10457 9.5 10 8.60457 10 7.5C10 6.39543 9.10457 5.5 8 5.5C6.89543 5.5 6 6.39543 6 7.5Z" stroke="#F2FEFF" stroke-width="2" stroke-linecap="round" stroke-linejoin="round"/>
</svg>
