<svg width="22" height="23" viewBox="0 0 22 23" fill="none" xmlns="http://www.w3.org/2000/svg">
<g clip-path="url(#clip0_162_2914)">
<path d="M11.0997 22.236C17.0955 22.236 21.956 17.3755 21.956 11.3798C21.956 5.38399 17.0955 0.523468 11.0997 0.523468C5.10393 0.523468 0.243408 5.38399 0.243408 11.3798C0.243408 17.3755 5.10393 22.236 11.0997 22.236Z" fill="#F0F0F0"/>
<path d="M2.72485 4.47071H19.4744C18.8558 3.72158 18.1382 3.05727 17.3423 2.49686H4.85697C4.06103 3.05719 3.34353 3.72154 2.72485 4.47071Z" fill="#F0F0F0"/>
<path d="M0.243408 11.3802C0.243408 11.713 0.259226 12.042 0.28853 12.3672H21.9109C21.9402 12.042 21.956 11.713 21.956 11.3802C21.956 11.0475 21.9402 10.7185 21.9109 10.3933H0.28853C0.259226 10.7185 0.243408 11.0475 0.243408 11.3802Z" fill="#F0F0F0"/>
<path d="M1.42763 16.3145H20.7725C21.0922 15.6892 21.3529 15.0288 21.5476 14.3407H0.652588C0.847195 15.0288 1.108 15.6892 1.42763 16.3145Z" fill="#F0F0F0"/>
<path d="M4.85697 20.2621H17.3423C18.1382 19.7017 18.8557 19.0374 19.4744 18.2882H2.72485C3.34353 19.0373 4.06103 19.7017 4.85697 20.2621Z" fill="#F0F0F0"/>
<path d="M0.652344 8.41947H21.5474C21.3527 7.73128 21.092 7.07091 20.7723 6.44562H1.42742C1.1078 7.07091 0.846994 7.73128 0.652344 8.41947Z" fill="#F0F0F0"/>
<path d="M5.43481 2.49738H17.3416C15.5758 1.25408 13.4228 0.523529 11.099 0.523529C9.68293 0.523529 7.20066 1.25408 5.43481 2.49738Z" fill="#D80027"/>
<path d="M10.6277 6.44492H20.7721C20.4111 5.73871 19.9751 5.0772 19.4745 4.47107H10.6277V6.44492Z" fill="#D80027"/>
<path d="M10.6277 10.3923H21.9108C21.8498 9.71452 21.7271 9.05449 21.5472 8.41843H10.6277V10.3923Z" fill="#D80027"/>
<path d="M0.651772 14.3414H21.5467C21.7266 13.7054 21.8494 13.0453 21.9104 12.3676H0.288086C0.349153 13.0453 0.47188 13.7053 0.651772 14.3414Z" fill="#D80027"/>
<path d="M2.72467 18.2888H19.4742C19.9748 17.6825 20.4109 17.0211 20.7719 16.3149H1.427C1.78802 17.0211 2.22405 17.6826 2.72467 18.2888Z" fill="#D80027"/>
<path d="M11.0989 22.2365C13.4227 22.2365 15.5757 21.5059 17.3415 20.2626H4.8562C6.62205 21.5059 8.77507 22.2365 11.0989 22.2365Z" fill="#D80027"/>
<path d="M0.652217 8.41856C0.472325 9.05467 0.349641 9.71466 0.288574 10.3924H11.0997V0.523071C6.13044 0.523071 1.94106 3.86189 0.652217 8.41856Z" fill="#0052B4"/>
<path d="M6.70608 3.35562L7.40898 5.51904H9.68396L7.84357 6.85623L8.54643 9.01977L6.70608 7.68266L4.86564 9.01977L5.56867 6.85623L3.72827 5.51904H6.00313L6.70608 3.35562Z" fill="#F0F0F0"/>
</g>
<defs>
<clipPath id="clip0_162_2914">
<rect width="21.7126" height="21.7126" fill="white" transform="translate(0.243408 0.523468)"/>
</clipPath>
</defs>
</svg>
